<?xml version="1.0" standalone="no"?>
<!DOCTYPE svg PUBLIC "-//W3C//DTD SVG 20010904//EN"
 "http://www.w3.org/TR/2001/REC-SVG-20010904/DTD/svg10.dtd">
<svg version="1.0" xmlns="http://www.w3.org/2000/svg"
 width="630.000000pt" height="630.000000pt" viewBox="0 0 630.000000 630.000000"
 preserveAspectRatio="xMidYMid meet">

<g transform="translate(0.000000,630.000000) scale(0.100000,-0.100000)"
fill="#000000" stroke="none">
<path d="M3090 4993 c-957 -19 -2247 -61 -2272 -74 -9 -5 -20 -24 -22 -42 -7
-37 -23 -1424 -32 -2667 -5 -766 -4 -867 9 -885 15 -20 29 -20 1714 -23 1977
-3 2996 7 3019 30 27 27 41 1446 25 2458 -16 954 -22 1135 -37 1150 -14 14
-104 26 -299 41 -140 10 -1732 20 -2105 12z m1925 -104 c138 -6 282 -14 320
-18 l70 -6 6 -85 c18 -237 32 -1463 25 -2335 -3 -511 -9 -953 -12 -981 l-6
-51 -612 -6 c-767 -8 -1811 -11 -3013 -9 l-933 2 0 428 c0 508 16 2200 26
2669 l6 332 72 5 c39 3 294 13 566 21 1738 52 2806 63 3485 34z"/>
<path d="M3420 4645 c-11 -13 -12 -67 -6 -273 l6 -257 -237 238 c-239 238
-273 264 -290 221 -9 -25 27 -587 40 -602 5 -7 20 -12 31 -10 18 3 21 11 24
58 1 30 -4 142 -11 248 -7 105 -10 192 -7 192 3 0 111 -106 239 -235 129 -129
240 -235 246 -235 31 0 35 25 34 234 -1 116 -4 261 -8 321 -6 102 -8 110 -27
113 -11 2 -27 -4 -34 -13z"/>
<path d="M3887 4616 c-128 -53 -197 -146 -197 -265 0 -87 30 -151 99 -213 71
-64 144 -91 246 -91 172 0 289 92 310 245 17 130 -83 286 -215 333 -66 23
-174 19 -243 -9z m224 -61 c54 -19 115 -76 140 -130 22 -48 25 -142 5 -188
-32 -75 -113 -117 -225 -117 -111 1 -187 41 -242 128 -57 91 -30 205 65 270
27 17 62 36 80 41 49 14 130 12 177 -4z"/>
<path d="M4500 4631 c-59 -5 -65 -8 -68 -30 -2 -13 2 -28 10 -33 7 -5 87 -8
178 -6 l165 3 3 -274 c2 -262 6 -301 33 -301 4 0 15 7 23 16 14 13 16 54 16
290 l0 274 189 0 c159 0 192 3 205 16 12 12 13 20 6 35 -10 18 -24 19 -353 17
-188 -1 -371 -4 -407 -7z"/>
<path d="M2153 4581 c-204 -70 -265 -317 -118 -479 114 -126 325 -130 432 -9
46 52 66 125 61 211 -6 90 -37 156 -101 218 -76 75 -170 95 -274 59z m151 -62
c51 -14 120 -85 140 -146 63 -185 -71 -340 -250 -288 -178 52 -228 287 -84
393 63 47 125 60 194 41z"/>
<path d="M1282 4548 c-5 -8 -12 -121 -14 -266 -5 -221 -3 -255 10 -269 14 -13
36 -15 147 -10 189 8 291 41 353 111 36 41 47 86 39 162 -14 138 -133 233
-337 270 -96 17 -184 18 -198 2z m218 -80 c111 -21 207 -83 236 -155 8 -18 14
-53 14 -79 0 -40 -5 -51 -35 -79 -53 -50 -183 -84 -322 -85 l-53 0 0 211 0
211 53 -7 c28 -3 77 -11 107 -17z"/>
<path d="M4845 3799 c-3 -8 -4 -172 -3 -364 l3 -350 24 -3 c13 -2 28 2 32 10
5 7 9 79 9 159 l0 146 98 5 c162 8 248 62 259 163 11 91 -32 162 -127 208 -59
29 -74 32 -177 36 -89 2 -114 0 -118 -10z m261 -90 c87 -43 121 -133 70 -184
-32 -32 -115 -55 -198 -55 l-68 0 0 136 0 137 74 -5 c50 -3 89 -13 122 -29z"/>
<path d="M3546 3744 c-14 -14 -16 -55 -14 -337 l3 -322 179 -3 c123 -2 183 1
192 9 17 14 18 45 3 55 -6 3 -78 6 -160 5 l-149 -2 0 295 c0 282 -1 296 -19
306 -15 7 -23 6 -35 -6z"/>
<path d="M4273 3736 c-58 -18 -105 -49 -148 -97 -60 -66 -79 -120 -79 -219 0
-74 4 -93 29 -143 37 -74 108 -139 183 -167 117 -44 268 -13 349 72 117 122
102 346 -33 481 -79 78 -194 106 -301 73z m160 -67 c66 -18 145 -103 168 -181
15 -52 12 -151 -6 -194 -20 -49 -49 -80 -100 -107 -57 -31 -183 -31 -240 0
-140 75 -185 264 -92 385 71 92 166 126 270 97z"/>
<path d="M2280 3705 c-15 -17 -14 -19 119 -370 90 -240 100 -260 123 -263 29
-4 18 -27 173 357 67 167 83 216 74 227 -14 17 -43 18 -56 2 -5 -7 -47 -107
-93 -223 -46 -115 -87 -214 -90 -218 -4 -4 -46 97 -95 225 -48 128 -94 243
-101 256 -17 25 -36 28 -54 7z"/>
<path d="M1280 3703 c-50 -10 -50 -8 -50 -297 0 -198 3 -275 12 -284 17 -17
144 -15 208 4 130 39 190 117 198 259 10 189 -93 306 -282 319 -33 2 -72 2
-86 -1z m212 -109 c55 -38 80 -90 86 -174 4 -60 1 -76 -21 -122 -38 -77 -113
-118 -214 -118 l-43 0 0 209 c0 115 3 217 7 226 5 15 16 17 75 13 56 -4 78
-11 110 -34z"/>
<path d="M3110 3700 l-175 -5 -3 -307 -2 -308 25 -6 c14 -3 109 -2 212 2 169
8 188 11 191 27 8 42 -11 47 -189 47 l-169 0 0 115 0 114 126 3 c104 2 129 6
137 19 6 9 7 24 4 33 -5 14 -25 16 -137 16 l-130 0 0 90 0 90 163 0 c168 0
187 4 187 41 0 35 -9 36 -240 29z"/>
<path d="M1797 3693 c-4 -3 -7 -143 -7 -309 l0 -304 23 -5 c12 -3 101 -4 197
-3 l175 3 0 30 0 30 -163 3 -163 2 3 108 3 107 125 5 c110 4 125 7 128 23 8
40 -14 47 -139 47 l-119 0 0 100 0 99 151 3 c127 3 154 6 162 19 6 9 7 24 4
33 -6 14 -29 16 -190 16 -101 0 -187 -3 -190 -7z"/>
<path d="M2052 2693 c-5 -10 -7 -24 -4 -32 2 -8 59 -100 125 -205 l119 -191
-19 -230 c-13 -150 -17 -234 -10 -242 14 -19 45 -16 55 5 5 9 17 116 27 237
l18 220 164 180 c170 187 187 217 132 223 -20 2 -33 -5 -54 -30 -15 -18 -69
-78 -120 -133 -50 -55 -105 -115 -121 -133 l-29 -32 -109 176 c-60 96 -115
182 -123 190 -19 19 -40 18 -51 -3z"/>
<path d="M4740 2692 c-14 -2 -29 -8 -34 -13 -10 -9 -47 -994 -38 -1017 2 -7
16 -12 30 -10 34 4 40 26 41 159 1 58 4 146 7 196 l7 90 91 6 c259 18 396 124
396 304 0 168 -144 271 -400 285 -41 2 -86 3 -100 0z m265 -98 c71 -25 118
-58 143 -103 25 -45 29 -115 8 -164 -18 -44 -88 -103 -145 -121 -51 -17 -166
-35 -223 -36 l-37 0 5 183 c3 100 7 202 10 226 l6 44 91 -6 c51 -3 115 -14
142 -23z"/>
<path d="M1257 2667 c-23 -18 -238 -807 -226 -829 11 -20 44 -24 55 -7 4 6 48
163 99 348 l93 336 77 -240 c43 -132 82 -246 88 -253 28 -35 49 -8 187 240
l138 247 4 -319 c3 -276 6 -322 20 -336 12 -13 20 -14 37 -5 20 11 20 13 14
409 -3 247 -10 402 -16 410 -28 36 -49 8 -194 -253 -79 -143 -148 -263 -152
-268 -4 -4 -45 110 -91 254 -85 264 -99 292 -133 266z"/>
<path d="M3356 2628 c-20 -31 -436 -925 -436 -936 0 -17 29 -34 48 -28 12 4
44 62 92 166 l73 160 192 0 192 0 39 -137 c21 -76 42 -144 47 -151 16 -20 52
-10 55 16 4 25 -234 900 -250 919 -16 19 -36 16 -52 -9z m79 -333 c32 -115 60
-216 62 -222 4 -10 -32 -13 -162 -13 -92 0 -165 4 -163 9 9 24 203 439 205
438 0 -1 27 -96 58 -212z"/>
<path d="M3923 2638 c-9 -10 -17 -142 -27 -424 -9 -225 -18 -448 -21 -496 -5
-71 -3 -89 10 -102 19 -18 24 -19 45 -6 15 9 26 170 29 408 l1 72 63 0 c283 1
449 119 435 308 -8 112 -70 181 -198 223 -85 28 -319 40 -337 17z m260 -73
c130 -27 194 -75 204 -155 13 -92 -34 -169 -126 -209 -55 -23 -224 -47 -265
-37 -26 6 -26 7 -26 105 0 54 3 146 7 204 l6 107 66 0 c36 0 97 -7 134 -15z"/>
</g>
</svg>
