<svg width="16" height="16" viewBox="0 0 16 16" fill="none" xmlns="http://www.w3.org/2000/svg">
<path d="M8 0.5C6.67392 0.5 5.40215 1.02678 4.46447 1.96447C3.52678 2.90215 3 4.17392 3 5.5C3 10 8 15.5 8 15.5C8 15.5 13 10 13 5.5C13 4.17392 12.4732 2.90215 11.5355 1.96447C10.5979 1.02678 9.32608 0.5 8 0.5ZM8 7.5C7.60444 7.5 7.21776 7.3827 6.88886 7.16294C6.55996 6.94318 6.30362 6.63082 6.15224 6.26537C6.00087 5.89991 5.96126 5.49778 6.03843 5.10982C6.1156 4.72186 6.30608 4.36549 6.58579 4.08579C6.86549 3.80608 7.22186 3.6156 7.60982 3.53843C7.99778 3.46126 8.39991 3.50087 8.76537 3.65224C9.13082 3.80362 9.44318 4.05996 9.66294 4.38886C9.8827 4.71776 10 5.10444 10 5.5C10 6.03043 9.78929 6.53914 9.41421 6.91421C9.03914 7.28929 8.53043 7.5 8 7.5Z" fill="#202020"/>
</svg>
