<svg width="16" height="16" viewBox="0 0 16 16" fill="none" xmlns="http://www.w3.org/2000/svg">
<path d="M7.87801 5.19325L4.97401 2.289C4.61635 1.94075 4.13593 1.74735 3.63674 1.75067C3.13755 1.75399 2.65975 1.95377 2.30676 2.30676C1.95377 2.65975 1.754 3.13755 1.75067 3.63674C1.74735 4.13593 1.94075 4.61635 2.28901 4.974L5.75551 8.4405C6.02639 8.71134 6.37287 8.89391 6.74942 8.96421C7.12597 9.03451 7.51498 8.98926 7.86534 8.8344C8.2157 8.67955 8.51102 8.42233 8.7125 8.09654C8.91398 7.77075 9.0122 7.39164 8.99426 7.009C9.44503 7.03002 9.87337 7.21174 10.2018 7.52125C10.1266 8.09651 9.89201 8.63925 9.52442 9.08807C9.15682 9.53688 8.67094 9.87384 8.12176 10.0608C7.57257 10.2478 6.98202 10.2773 6.41693 10.146C5.85184 10.0148 5.33477 9.72792 4.92426 9.318L1.41001 5.80325C0.839657 5.21815 0.522772 4.43192 0.527987 3.61484C0.533202 2.79777 0.860098 2.01564 1.43787 1.43787C2.01564 0.860095 2.79777 0.533199 3.61484 0.527984C4.43192 0.522769 5.21816 0.839654 5.80326 1.41L9.31826 4.92475C9.36776 4.974 9.41176 5.027 9.45726 5.07875C8.92974 4.98034 8.38575 5.01986 7.87801 5.1935V5.19325Z" fill="#202020"/>
<path d="M14.59 14.5898C14.3016 14.8783 13.9591 15.1072 13.5823 15.2634C13.2054 15.4195 12.8014 15.4999 12.3934 15.5C11.9855 15.5 11.5815 15.4196 11.2046 15.2635C10.8277 15.1074 10.4852 14.8785 10.1967 14.59L6.682 11.0755C6.37916 10.7735 6.14218 10.4121 5.986 10.014L5.98575 10.012C6.47251 10.202 6.99927 10.2665 7.5175 10.1995L7.519 10.2025C7.53225 10.217 7.546 10.2315 7.56025 10.2455L11.0267 13.7118C11.3828 14.0678 11.8657 14.2678 12.3692 14.2678C12.8728 14.2678 13.3557 14.0678 13.7117 13.7118C14.0678 13.3557 14.2678 12.8728 14.2678 12.3693C14.2678 11.8657 14.0678 11.3828 13.7117 11.0268L10.245 7.56075C10.231 7.54675 10.216 7.535 10.2017 7.5215C9.97066 7.30296 9.68824 7.14617 9.38057 7.06558C9.07289 6.985 8.74987 6.98323 8.44132 7.06043C8.13278 7.13764 7.84866 7.29133 7.61519 7.50732C7.38172 7.72331 7.20643 7.99464 7.1055 8.29625C6.68461 8.22788 6.29548 8.03004 5.99225 7.73025C6.1825 7.25218 6.48852 6.82884 6.88282 6.49827C7.27712 6.1677 7.74737 5.94026 8.25131 5.83635C8.75525 5.73245 9.2771 5.75535 9.77001 5.903C10.2629 6.05065 10.7114 6.31841 11.0752 6.68225L14.59 10.1968C14.8785 10.4852 15.1073 10.8276 15.2635 11.2045C15.4196 11.5814 15.5 11.9853 15.5 12.3933C15.5 12.8012 15.4196 13.2051 15.2635 13.582C15.1073 13.9589 14.8785 14.3013 14.59 14.5898Z" fill="#202020"/>
</svg>
