<svg width="16" height="16" viewBox="0 0 16 16" fill="none" xmlns="http://www.w3.org/2000/svg">
<path d="M12.125 10.05C11.8643 9.88482 11.55 9.82643 11.2474 9.88695C10.9448 9.94747 10.6771 10.1223 10.5 10.375C9.9 11.1 9.175 12.3 6.45 9.575C3.725 6.85 4.9 6.1 5.625 5.5C5.87774 5.32289 6.05252 5.05522 6.11305 4.7526C6.17357 4.44999 6.11518 4.13568 5.95 3.87499L4.25 1.27499C4.025 0.949995 3.725 0.424995 3.025 0.524995C2.325 0.624995 0.5 1.65 0.5 3.9C0.5 6.14999 2.275 8.89999 4.7 11.325C7.125 13.75 9.875 15.5 12.1 15.5C14.325 15.5 15.4 13.5 15.475 13C15.55 12.5 15.05 12 14.725 11.775L12.125 10.05Z" fill="#202020"/>
</svg>
